<?xml version="1.0" standalone="no"?>
<!DOCTYPE svg PUBLIC "-//W3C//DTD SVG 20010904//EN"
 "http://www.w3.org/TR/2001/REC-SVG-20010904/DTD/svg10.dtd">
<svg version="1.0" xmlns="http://www.w3.org/2000/svg"
 width="700.000000pt" height="700.000000pt" viewBox="0 0 700.000000 700.000000"
 preserveAspectRatio="xMidYMid meet">
<metadata>
Created by potrace 1.14, written by Peter Selinger 2001-2017
</metadata>
<g transform="translate(0.000000,700.000000) scale(0.100000,-0.100000)"
fill="#000000" stroke="none">
<path d="M3417 6894 c-1 -1 -58 -5 -127 -8 -69 -4 -141 -9 -160 -11 -139 -18
-213 -29 -263 -40 -69 -16 -64 -15 -82 -15 -20 0 -56 -38 -105 -111 -135 -197
-243 -462 -329 -804 -34 -138 -33 -130 -70 -340 -31 -170 -36 -203 -60 -415
-6 -52 -13 -122 -16 -155 -2 -33 -6 -85 -9 -115 -7 -79 -15 -215 -22 -370 -8
-155 -8 -819 -1 -826 4 -4 117 181 117 192 0 3 8 17 19 32 10 15 122 206 247
425 l229 398 100 63 c290 185 631 379 925 527 146 73 388 189 395 189 3 0 65
27 160 70 158 72 565 210 755 256 264 65 432 87 637 87 l123 -1 -63 58 c-435
406 -997 704 -1562 830 -79 18 -90 20 -120 25 -39 6 -85 14 -110 20 -11 2 -45
7 -75 10 -30 3 -68 8 -85 10 -77 10 -441 25 -448 19z"/>
<path d="M2430 6721 c-393 -133 -739 -321 -1060 -580 -163 -131 -345 -309
-470 -461 -34 -41 -70 -85 -80 -97 -41 -49 -181 -255 -237 -348 -110 -183
-213 -403 -287 -616 l-38 -106 22 -49 c128 -288 318 -533 651 -839 90 -82 126
-114 184 -160 28 -22 52 -43 55 -46 10 -11 187 -147 298 -227 151 -111 434
-299 612 -407 80 -48 157 -96 172 -106 15 -11 30 -19 33 -19 3 0 47 -24 98
-54 51 -29 123 -70 160 -90 37 -20 83 -46 103 -56 19 -11 37 -20 39 -20 2 0
-9 21 -25 48 -32 53 -379 652 -418 722 -13 25 -28 50 -32 55 -4 6 -19 30 -32
55 -14 25 -42 74 -63 109 -36 61 -39 71 -44 170 -13 257 -4 1056 13 1211 3 19
7 73 11 120 6 82 9 114 19 210 3 25 8 68 11 96 3 28 8 61 10 75 3 13 7 47 10
74 3 28 15 102 26 165 19 113 23 129 33 180 14 64 17 76 20 95 60 292 188 644
306 842 29 49 55 91 57 96 7 12 -6 8 -157 -42z"/>
<path d="M5608 5815 c-2 -2 -34 -6 -73 -9 -38 -3 -83 -9 -100 -11 -155 -27
-405 -86 -470 -111 -22 -9 -40 -15 -40 -13 0 8 -270 -89 -453 -162 -412 -164
-998 -468 -1434 -742 -27 -17 -48 -31 -48 -31 0 -1 276 -2 613 -2 l612 0 90
-48 c190 -102 245 -132 405 -224 1016 -585 1725 -1187 2025 -1719 30 -54 55
-94 55 -90 0 4 11 58 24 120 31 143 37 175 51 282 3 28 8 64 10 80 22 168 23
560 1 728 -3 18 -8 55 -11 82 -12 97 -30 195 -60 330 -3 11 -7 29 -9 40 -44
195 -155 494 -270 723 -119 236 -320 532 -483 709 -47 51 -50 52 -122 62 -65
9 -305 13 -313 6z"/>
<path d="M4320 4557 c0 -8 45 -89 152 -272 58 -99 116 -200 130 -225 14 -25
74 -128 133 -230 59 -102 121 -210 138 -240 16 -30 35 -61 40 -68 28 -36 30
-1010 2 -1337 -2 -27 -7 -84 -10 -125 -7 -86 -34 -332 -40 -371 -3 -15 -7 -47
-10 -70 -3 -24 -10 -69 -15 -99 -5 -30 -12 -73 -15 -95 -11 -77 -46 -241 -81
-380 -77 -306 -183 -570 -306 -764 -15 -25 -26 -46 -24 -48 7 -7 301 95 411
142 879 378 1544 1082 1869 1979 l47 128 -18 47 c-57 152 -208 381 -373 566
-42 47 -266 270 -306 305 -16 14 -61 52 -99 85 -105 91 -345 279 -441 345
-301 208 -435 297 -501 335 -10 6 -59 35 -108 66 -82 51 -386 228 -442 257
-13 7 -33 17 -45 24 -13 6 -38 20 -55 31 -18 10 -33 17 -33 14z"/>
<path d="M196 4278 c-36 -159 -71 -383 -83 -538 -11 -151 -5 -499 11 -600 2
-14 7 -52 11 -85 4 -32 9 -68 11 -80 2 -11 6 -33 8 -50 17 -124 83 -376 142
-547 139 -401 388 -825 661 -1126 45 -49 52 -53 108 -60 115 -14 378 -7 496
13 175 29 214 38 404 91 180 50 474 152 597 207 18 9 83 36 143 62 129 55 528
250 665 325 52 28 122 67 156 85 118 65 424 248 460 275 20 15 -27 16 -590 16
l-611 0 -65 36 c-36 19 -110 59 -164 88 -95 51 -254 140 -286 160 -8 5 -44 26
-80 46 -287 164 -808 515 -1005 676 -504 413 -742 669 -926 996 l-47 83 -16
-73z"/>
<path d="M4804 3287 c-17 -27 -107 -180 -201 -347 -11 -19 -44 -75 -73 -125
-29 -49 -60 -103 -70 -120 -9 -16 -41 -72 -71 -123 -30 -50 -61 -104 -69 -120
-101 -182 -98 -179 -205 -246 -108 -69 -366 -226 -370 -226 -2 0 -36 -19 -77
-43 -40 -24 -113 -65 -163 -92 -49 -26 -106 -57 -125 -68 -80 -45 -435 -220
-573 -281 -458 -205 -926 -355 -1217 -391 -30 -4 -57 -8 -60 -10 -12 -7 -195
-19 -296 -18 l-111 1 24 -24 c142 -142 378 -324 597 -459 301 -185 742 -358
1071 -420 154 -29 310 -51 444 -61 146 -12 503 -6 601 10 25 4 91 13 160 22
134 17 215 38 238 63 73 78 193 294 260 466 68 176 159 506 191 695 6 36 13
74 15 85 4 19 22 143 32 210 10 73 34 286 39 350 3 39 8 90 10 115 4 47 14
208 21 345 5 98 7 835 2 840 -2 2 -13 -11 -24 -28z"/>
</g>
</svg>
